<svg xmlns="http://www.w3.org/2000/svg" xmlns:xlink="http://www.w3.org/1999/xlink" version="1.1" xml:space="preserve" viewBox="0 0 1080 1080">
<desc>Created with Fabric.js 5.2.4</desc>
<defs>
</defs>
<rect x="0" y="0" width="100%" height="100%" fill="transparent"/>
<g transform="matrix(0 0 0 0 0 0)" id="676031cc-f546-49f3-8eac-35b0b4cd2c3c">
</g>
<g transform="matrix(1 0 0 1 540 540)" id="3c91a5d1-a09e-45d9-8db9-6cf520b22de7">
<rect style="stroke: none; stroke-width: 1; stroke-dasharray: none; stroke-linecap: butt; stroke-dashoffset: 0; stroke-linejoin: miter; stroke-miterlimit: 4; fill: rgb(255,255,255); fill-rule: nonzero; opacity: 1; visibility: hidden;" vector-effect="non-scaling-stroke" x="-540" y="-540" rx="0" ry="0" width="1080" height="1080"/>
</g>
<g transform="matrix(3.65 0 0 3.65 540 540)">
<path style="stroke: rgb(26,101,158); stroke-width: 1; stroke-dasharray: none; stroke-linecap: butt; stroke-dashoffset: 0; stroke-linejoin: miter; stroke-miterlimit: 4; fill: rgb(26,101,158); fill-rule: nonzero; opacity: 1;" vector-effect="non-scaling-stroke" transform=" translate(-50, -50)" d="M 88.1 7.48187 C 97.3697949127001 20.12949613395427 97.29266375235522 37.34773012275809 87.90992999999999 49.9118 C 86.32696343135103 51.983606720193464 83.59341969409334 52.806099824675044 81.13001999999999 51.9518 C 75.67994999999999 50.08193 65.65001999999998 46.4218 59.01001999999998 42.541889999999995 C 59.661349433346714 41.187767838707146 59.99969618795873 39.704463294823576 60 38.201840000000004 L 60 21.79193 C 60.00109533009138 19.98785759230484 59.51017648154903 18.217642781048824 58.58008 16.67181 C 65.18994 11.94183 75.4 7.61188 80.99 5.42181 C 83.55284258069618 4.414638446757458 86.472568965535 5.260603501096569 88.1 7.4818700000000025 Z M 50.027609999999996 16.81537 L 49.972429999999996 16.81537 C 47.22623542145805 16.815414181937197 45.00002209065761 19.041645421191493 45 21.787840000000003 L 45 38.2 C 45.00001656780995 40.94618905603915 47.22622094436068 43.17242029527068 49.972409999999996 43.172470000000004 L 50.02759 43.172470000000004 C 52.77377905563931 43.17242029527069 54.99998343219005 40.94618905603916 55 38.2 L 55 21.78784 C 54.99997790960513 19.041653231493672 52.773776768039845 16.81542522728663 50.02759 16.81537 Z M 93.86 93.15192 C 87.01 78.51192 82.4 66.11192 73.81007 54.641920000000006 C 68.01007 52.48192 60.83006999999999 49.51192 55.70997 46.391920000000006 C 54.856937476240844 46.979971265135774 53.91959794900776 47.43515412907989 52.92997 47.74192000000001 C 59.630039999999994 59.80198000000001 67.02006 81.98192 67.92997 94.43186 C 67.94457011812868 94.65416458829263 68.08033443641347 94.85039152050227 68.2832183516367 94.94242743940906 C 68.48610226685994 95.03446335831585 68.72317367990884 95.00736900173118 68.90006 94.87193 C 72.60047613990467 92.12317406150187 75.65796941837505 88.60161404373957 77.86006 84.55198000000001 C 78.08806061250745 84.15215322607324 78.5901857633688 84.00233145689023 79 84.21185 C 84.45 87.16185 87 89.01185 92.93994 93.87185 C 93.15695808391209 94.04760780667644 93.46659930682829 94.05020371647933 93.68653364777515 93.87810914647535 C 93.906467988722 93.70601457647136 93.97841118512848 93.40483588836815 93.86 93.15192 Z M 41.41992 16.67181 C 34.81006 11.94183 24.6 7.61188 19.01 5.42181 C 16.447157419303814 4.414638446757458 13.527431034464986 5.260603501096568 11.899999999999999 7.4818700000000025 C 2.6302050872998954 20.12949613395427 2.70733624764477 37.347730122758094 12.090070000000006 49.91180000000001 C 13.67303656864895 51.983606720193464 16.40658030590665 52.80609982467504 18.86998 51.9518 C 24.320050000000002 50.08193 34.34998 46.4218 40.98998 42.541889999999995 C 40.33865056665327 41.18776783870714 40.00030381204126 39.70446329482357 40 38.20184 L 40 21.79193 C 39.99890466990862 19.98785759230484 40.48982351845096 18.217642781048827 41.41991999999999 16.671810000000004 Z M 26.189919999999997 54.64191 C 17.6 66.11188 12.99 78.5119 6.14 93.15192 C 6.021574200497858 93.40482525751798 6.093494918361715 93.70600471923059 6.313412989200157 93.8781145137998 C 6.5333310600385985 94.05022430836902 6.842968037131358 94.04765521662246 7.06 93.87192 C 13 89.0119 15.55005 87.1618 21 84.21185 C 21.409818657390428 84.00228596290056 21.911983319982163 84.15209401562058 22.14 84.55194 C 24.34209058162495 88.60157404373956 27.39958386009532 92.12313406150187 31.099999999999987 94.87189 C 31.276886320091158 95.00732900173116 31.513957733140057 95.03442335831583 31.716841648363292 94.94238743940905 C 31.919725563586525 94.85035152050226 32.05548988187132 94.65412458829262 32.07009 94.43181999999999 C 32.980000000000004 81.98181999999998 40.37002 59.80193999999999 47.07009 47.74187999999999 C 46.08046205099224 47.43511412907988 45.14312252375915 46.97993126513575 44.29009 46.391879999999986 C 39.16992 49.5119 31.99 52.48187 26.18994 54.64191 Z" stroke-linecap="round"/>
</g>
<g transform="matrix(0 0 0 0 0 0)">
<g style="">
</g>
</g>
<g transform="matrix(0 0 0 0 0 0)">
<g style="">
</g>
</g>
<g transform="matrix(0 0 0 0 0 0)">
<g style="">
</g>
</g>
<g transform="matrix(0 0 0 0 0 0)">
<g style="">
</g>
</g>
</svg>